PathFileType	4	(X/Y/Z)	D:\Share\Shared_Data\Ergonomics\Sit To Stand Pertubation\S0\Perturbed STS.trc
DataRate	CameraRate	NumFrames	NumMarkers	Units	OrigDataRate	OrigDataStartFrame	OrigNumFrames	
100	100	6	18	m	100	13026	241
Frame#	Time	R_Heel			R_ASIS			R_Pelvis			V_Sacral			L_Pelvis			L_ASIS			Clavical			R_Acromium			L_Acromium			Sternum			Torso			R_Thigh_Med			R_Thigh_Lat			R_Thigh			R_Shank_Med			R_Shank_Lat			R_Shank			R_Toe			
		X1	Y1	Z1	X2	Y2	Z2	X3	Y3	Z3	X4	Y4	Z4	X5	Y5	Z5	X6	Y6	Z6	X7	Y7	Z7	X8	Y8	Z8	X9	Y9	Z9	X10	Y10	Z10	X11	Y11	Z11	X12	Y12	Z12	X13	Y13	Z13	X14	Y14	Z14	X15	Y15	Z15	X16	Y16	Z16	X17	Y17	Z17	X18	Y18	Z18	

13026	86.6	0.1725399	0.041123867	0.11579649	0.32216998	0.98557202	0.14258057	0.20065686	1.0149095	0.18608777	0.07528582	1.0303284	-0.040716782	0.21554817	1.0034665	-0.22286426	0.32918494	0.97037341	-0.17274117	0.41179303	1.4065914	-0.028574617	0.3401951	1.4827839	0.10855769	0.3370112	1.488924	-0.1778176	0.42970862	1.3106259	-0.043791245	0.40802911	1.3598708	-0.15023254	0.32640152	0.49214224	0.024614628	0.32189633	0.51411993	0.1536794	0.3831188	0.65387366	0.090006996	0.27168298	0.09957946	0.069288162	0.21433203	0.086299454	0.15898756	0.26592081	0.31453	0.17368825	0.39934656	0.047249565	0.10967794
13027	86.61	0.17257025	0.041166904	0.11575512	0.32442957	0.98651044	0.14273193	0.20267468	1.0152383	0.18600975	0.077567657	1.0302498	-0.040855358	0.21807506	1.0039226	-0.22280826	0.3319144	0.97146198	-0.17274051	0.41133389	1.4085226	-0.028240005	0.33903253	1.4841849	0.10891268	0.33599539	1.4903564	-0.17762357	0.429884	1.3126433	-0.043481262	0.40787936	1.3617524	-0.14996181	0.32620108	0.49218158	0.024271534	0.3218508	0.51423755	0.15326477	0.38387808	0.6536319	0.089545837	0.27168106	0.099576416	0.069225281	0.21429285	0.086340683	0.15890015	0.26572372	0.31464691	0.17348592	0.3994306	0.047105549	0.10967811
13028	86.62	0.17259756	0.041208565	0.11572199	0.32663596	0.98740259	0.14289185	0.20467232	1.0155488	0.18593279	0.079838577	1.030147	-0.040996178	0.22059045	1.0043373	-0.22274738	0.33462198	0.97249738	-0.17274167	0.41087735	1.4103826	-0.027918056	0.3378934	1.4855294	0.10926013	0.3349899	1.4917257	-0.17743269	0.43005219	1.314592	-0.043186741	0.40772226	1.3635631	-0.14970633	0.32600015	0.49222482	0.023975254	0.3217847	0.51435669	0.15289273	0.38464774	0.65339551	0.089126968	0.27167188	0.099581322	0.06917939	0.21423863	0.08637394	0.15882722	0.26552069	0.31476379	0.17330843	0.39949744	0.046976322	0.1096966
13029	86.63	0.17262228	0.041249073	0.11569772	0.32880759	0.98825916	0.14306229	0.20665027	1.0158442	0.18586143	0.082097664	1.0300223	-0.041136765	0.22309256	1.0047112	-0.2226823	0.33730466	0.97347809	-0.17274553	0.41041931	1.4121796	-0.027606396	0.33677158	1.4868221	0.10960165	0.3339903	1.4930354	-0.17724368	0.43021317	1.3164805	-0.042904026	0.40755884	1.3653114	-0.14946188	0.32579813	0.49227338	0.02372695	0.32169208	0.51448096	0.15256393	0.38541412	0.65316046	0.088763168	0.27165442	0.099594498	0.0691502	0.21417018	0.086399979	0.15876651	0.26530865	0.31488235	0.17315778	0.39954843	0.046856915	0.10973382
13030	86.64	0.17264441	0.041288273	0.11568199	0.33097055	0.98909332	0.14324519	0.2086104	1.0161282	0.1858008	0.084344391	1.0298783	-0.041273323	0.22558211	1.0050443	-0.22261111	0.33996448	0.97440424	-0.17275208	0.40995602	1.4139219	-0.02730246	0.33566187	1.4880674	0.1099391	0.33299161	1.4942893	-0.17705495	0.43036679	1.3183173	-0.042629528	0.4073898	1.3670066	-0.14922426	0.32558945	0.49232874	0.023522429	0.32156738	0.51461389	0.15227586	0.38616177	0.65292297	0.088464355	0.27162738	0.099615601	0.069135925	0.2140912	0.086420898	0.15871501	0.26508182	0.31500406	0.17303374	0.39958472	0.046743202	0.10978871
13031	86.65	0.17266377	0.041325859	0.11567356	0.33315137	0.98991809	0.14344208	0.21055621	1.0164047	0.18575491	0.08658075	1.029715	-0.041402241	0.22806157	1.0053364	-0.22252997	0.34260602	0.97527802	-0.17276036	0.40948492	1.4156165	-0.027003647	0.33455963	1.4892686	0.11027444	0.33198837	1.4954908	-0.1768649	0.43051334	1.3201106	-0.042359821	0.40721631	1.3686571	-0.14898978	0.32536389	0.49239178	0.023353394	0.32140591	0.51475751	0.15202393	0.38687946	0.65268048	0.088233994	0.27158972	0.0996437	0.069133736	0.21400867	0.086440384	0.15867006	0.26483322	0.31512912	0.17293369	0.3996077	0.046632263	0.10985917
